<svg width="89" height="89" viewBox="0 0 89 89" fill="none" xmlns="http://www.w3.org/2000/svg">
<g filter="url(#filter0_bd_89_249)">
<rect x="10" y="4" width="69" height="69" rx="20" fill="#6CF3C3"/>
</g>
<path d="M47 21C51.5087 21 55.8327 22.7911 59.0208 25.9792C62.2089 29.1673 64 33.4913 64 38C64 42.5087 62.2089 46.8327 59.0208 50.0208C55.8327 53.2089 51.5087 55 47 55H46V56.98C46 57.2454 45.9477 57.5083 45.846 57.7535C45.7444 57.9987 45.5954 58.2215 45.4076 58.4091C45.2199 58.5967 44.9969 58.7454 44.7516 58.8468C44.5063 58.9482 44.2434 59.0003 43.978 59C39.058 58.996 34.074 57.354 30.292 53.992C26.476 50.596 24.004 45.55 24 39.018V38C24 33.4913 25.7911 29.1673 28.9792 25.9792C32.1673 22.7911 36.4913 21 41 21H47ZM47 25H41C37.5522 25 34.2456 26.3696 31.8076 28.8076C29.3696 31.2456 28 34.5522 28 38L28.002 39.33C28.082 44.614 30.084 48.454 32.952 51.002C35.428 53.206 38.634 54.52 42 54.89V53.02C42 51.904 42.904 51 44.02 51H47C50.4478 51 53.7544 49.6304 56.1924 47.1924C58.6304 44.7544 60 41.4478 60 38C60 34.5522 58.6304 31.2456 56.1924 28.8076C53.7544 26.3696 50.4478 25 47 25ZM37 35C37.7956 35 38.5587 35.3161 39.1213 35.8787C39.6839 36.4413 40 37.2044 40 38C40 38.7956 39.6839 39.5587 39.1213 40.1213C38.5587 40.6839 37.7956 41 37 41C36.2043 41 35.4413 40.6839 34.8787 40.1213C34.3161 39.5587 34 38.7956 34 38C34 37.2044 34.3161 36.4413 34.8787 35.8787C35.4413 35.3161 36.2043 35 37 35ZM51 35C51.7956 35 52.5587 35.3161 53.1213 35.8787C53.6839 36.4413 54 37.2044 54 38C54 38.7956 53.6839 39.5587 53.1213 40.1213C52.5587 40.6839 51.7956 41 51 41C50.2043 41 49.4413 40.6839 48.8787 40.1213C48.3161 39.5587 48 38.7956 48 38C48 37.2044 48.3161 36.4413 48.8787 35.8787C49.4413 35.3161 50.2043 35 51 35Z" fill="#1C1D28"/>
<defs>
<filter id="filter0_bd_89_249" x="0" y="0" width="89" height="89" filterUnits="userSpaceOnUse" color-interpolation-filters="sRGB">
<feFlood flood-opacity="0" result="BackgroundImageFix"/>
<feGaussianBlur in="BackgroundImageFix" stdDeviation="2"/>
<feComposite in2="SourceAlpha" operator="in" result="effect1_backgroundBlur_89_249"/>
<feColorMatrix in="SourceAlpha" type="matrix" values="0 0 0 0 0 0 0 0 0 0 0 0 0 0 0 0 0 0 127 0" result="hardAlpha"/>
<feOffset dy="6"/>
<feGaussianBlur stdDeviation="5"/>
<feComposite in2="hardAlpha" operator="out"/>
<feColorMatrix type="matrix" values="0 0 0 0 0 0 0 0 0 0 0 0 0 0 0 0 0 0 0.25 0"/>
<feBlend mode="normal" in2="effect1_backgroundBlur_89_249" result="effect2_dropShadow_89_249"/>
<feBlend mode="normal" in="SourceGraphic" in2="effect2_dropShadow_89_249" result="shape"/>
</filter>
</defs>
</svg>
