<svg width="148" height="54" viewBox="0 0 148 54" fill="none" xmlns="http://www.w3.org/2000/svg">
<g filter="url(#filter0_d_232_2)">
<rect x="5" y="3" width="138" height="44" rx="15" fill="#1C1D28"/>
</g>
<path d="M40.2646 20.0562V21.5698H37.4795C37.4946 22.9851 38.5391 24.4231 40.749 24.9907L39.856 26.4741C38.2893 26.0806 37.1843 25.2102 36.5562 24.0825C35.9583 25.3691 34.8533 26.3757 33.2261 26.8374L32.3179 25.3389C34.5278 24.7107 35.542 23.1365 35.5571 21.5698H32.7871V20.0562H35.5571V18.5576H37.5098V20.0562H40.2646ZM44.0186 18.6182V26.9434H42.0962V23.8555H39.856V22.3115H42.0962V18.6182H44.0186ZM39.311 27.1704C42.2476 27.1855 44.0488 28.1089 44.064 29.7588C44.0488 31.4238 42.2476 32.3926 39.311 32.3926C36.3896 32.3926 34.5732 31.4238 34.5732 29.7588C34.5732 28.1089 36.3896 27.1855 39.311 27.1704ZM39.311 28.6538C37.4795 28.6538 36.4956 29.0171 36.4956 29.7588C36.4956 30.5156 37.4795 30.9243 39.311 30.9243C41.1729 30.9243 42.1416 30.5156 42.1416 29.7588C42.1416 29.0171 41.1729 28.6538 39.311 28.6538ZM57.4751 18.6333V29.0322H55.5376V27.9424H52.9038V26.6255H55.5376V18.6333H57.4751ZM57.7778 30.6064V32.1504H47.5151V28.0332H49.4375V26.2017C48.2039 26.2546 47.0308 26.2622 45.9863 26.2622L45.7593 24.7334C48.2871 24.7183 51.6929 24.688 54.5991 24.3247L54.7051 25.7021C53.6152 25.8838 52.4875 26.0125 51.375 26.0957V28.7144H49.4375V30.6064H57.7778ZM50.2397 19.1025C52.2378 19.0874 53.6758 20.1016 53.6758 21.5698C53.6758 23.0381 52.2378 23.9917 50.2397 23.9917C48.1963 23.9917 46.7734 23.0381 46.7734 21.5698C46.7734 20.1016 48.1812 19.0874 50.2397 19.1025ZM50.2397 20.5103C49.2559 20.5103 48.5898 20.8887 48.605 21.5698C48.5898 22.2358 49.2559 22.5991 50.2397 22.5991C51.1631 22.5991 51.8291 22.2358 51.8442 21.5698C51.8291 20.8887 51.1631 20.5103 50.2397 20.5103ZM70.5986 19.4204V20.9644H67.8589C67.874 22.5764 68.8276 24.2263 71.0679 24.9453L70.084 26.4438C68.5552 25.9519 67.5032 24.968 66.9053 23.7344C66.2922 25.0815 65.1948 26.1487 63.5903 26.6709L62.561 25.1875C64.8391 24.4534 65.876 22.6899 65.9062 20.9644H63.0908V19.4204H70.5986ZM73.7017 18.6182V21.9634H75.5635V23.5679H73.7017V26.9282H71.7642V18.6182H73.7017ZM73.7017 27.5186V32.3926H71.7642V29.0474H64.4229V27.5186H73.7017ZM81.376 20.4951C81.3608 22.3418 82.3145 24.0371 84.5244 24.7183L83.5103 26.2319C82.0269 25.7173 81.0203 24.7637 80.4526 23.5225C79.832 24.9604 78.7195 26.0957 77.062 26.6558L76.0479 25.1118C78.4092 24.355 79.4082 22.5083 79.4233 20.5859V19.3296H81.376V20.4951ZM87.7788 18.6182V26.686H85.8564V22.7202H83.2681V21.146H85.8564V18.6182H87.7788ZM83.0713 27.0493C86.0078 27.0493 87.8091 28.0332 87.8242 29.7285C87.8091 31.4238 86.0078 32.3926 83.0713 32.3926C80.1348 32.3926 78.3335 31.4238 78.3335 29.7285C78.3335 28.0332 80.1348 27.0493 83.0713 27.0493ZM83.0713 28.5479C81.2397 28.5479 80.2559 28.9414 80.2559 29.7285C80.2559 30.4854 81.2397 30.894 83.0713 30.894C84.9028 30.894 85.9019 30.4854 85.9019 29.7285C85.9019 28.9414 84.9028 28.5479 83.0713 28.5479ZM100.433 18.6182V24.0068H102.461V25.5962H100.433V32.3926H98.5259V18.6182H100.433ZM97.5874 20.6768V22.2207H89.4893V20.6768H92.6074V18.8301H94.5449V20.6768H97.5874ZM93.5762 22.9927C95.5894 22.9927 97.0879 24.355 97.0879 26.2773C97.0879 28.1997 95.5894 29.562 93.5762 29.562C91.5479 29.562 90.0493 28.1997 90.0493 26.2773C90.0493 24.355 91.5479 22.9927 93.5762 22.9927ZM93.5762 24.5518C92.6074 24.5669 91.896 25.2178 91.896 26.2773C91.896 27.3521 92.6074 27.9878 93.5762 27.9727C94.5449 27.9878 95.2412 27.3521 95.2412 26.2773C95.2412 25.2178 94.5449 24.5669 93.5762 24.5518ZM114.541 18.6182V32.3926H112.588V18.6182H114.541ZM110.408 20.0562C110.408 24.2339 108.94 27.7002 104.021 30.0312L103.006 28.4873C106.563 26.8071 108.13 24.6274 108.44 21.5698H103.748V20.0562H110.408Z" fill="#6CF3C3"/>
<defs>
<filter id="filter0_d_232_2" x="0" y="0" width="148" height="54" filterUnits="userSpaceOnUse" color-interpolation-filters="sRGB">
<feFlood flood-opacity="0" result="BackgroundImageFix"/>
<feColorMatrix in="SourceAlpha" type="matrix" values="0 0 0 0 0 0 0 0 0 0 0 0 0 0 0 0 0 0 127 0" result="hardAlpha"/>
<feOffset dy="2"/>
<feGaussianBlur stdDeviation="2.5"/>
<feComposite in2="hardAlpha" operator="out"/>
<feColorMatrix type="matrix" values="0 0 0 0 0 0 0 0 0 0 0 0 0 0 0 0 0 0 0.25 0"/>
<feBlend mode="normal" in2="BackgroundImageFix" result="effect1_dropShadow_232_2"/>
<feBlend mode="normal" in="SourceGraphic" in2="effect1_dropShadow_232_2" result="shape"/>
</filter>
</defs>
</svg>
