<svg width="88" height="19" viewBox="0 0 88 19" fill="none" xmlns="http://www.w3.org/2000/svg">
<path d="M0.250488 18V0.324219H4.40088V14.6064H11.8228V18H0.250488ZM13.3608 14.3135C13.3608 11.3838 15.6313 10.334 18.2681 10.1631C19.2202 10.1021 20.8804 10.041 21.4419 10.0166V8.94238C21.4419 8.01465 20.7583 7.50195 19.6353 7.50195C18.5366 7.50195 17.853 7.96582 17.6821 8.84473H13.8491C14.02 6.50098 16.022 4.57227 19.7329 4.57227C23.0044 4.57227 25.5679 6.13477 25.5679 8.99121V18H21.686V16.1445H21.5884C20.856 17.4873 19.5864 18.2441 17.731 18.2441C15.1919 18.2441 13.3608 16.9502 13.3608 14.3135ZM17.2671 14.1426C17.2671 15.0459 17.9751 15.5098 18.9761 15.5098C20.3677 15.5098 21.4907 14.6064 21.4663 13.2881V12.4336C20.9658 12.458 19.562 12.519 18.9517 12.5801C17.9263 12.7021 17.2671 13.2637 17.2671 14.1426ZM30.5972 18L27.106 4.74316H31.2319L33.0874 13.3125H33.1851L35.1626 4.74316H39.1909L41.2173 13.2637H41.3149L43.0972 4.74316H47.2476L43.7563 18H39.3618L37.2622 10.1387H37.0913L34.9917 18H30.5972ZM48.9321 18V0.324219H56.2319C60.187 0.324219 62.2378 2.13086 62.2378 4.81641C62.2378 6.84277 60.8706 8.23438 58.9419 8.625V8.7959C61.0659 8.89355 62.9214 10.5049 62.9214 13.0684C62.9214 15.9248 60.6997 18 56.7935 18H48.9321ZM55.8169 14.6309C57.7212 14.6309 58.5757 13.874 58.5757 12.6045C58.5757 11.2129 57.5503 10.334 55.8901 10.334H53.0825V14.6309H55.8169ZM55.5483 7.62402C56.9644 7.62402 57.9897 6.86719 57.9897 5.59766C57.9897 4.40137 57.0864 3.64453 55.5972 3.64453H53.0825V7.62402H55.5483ZM71.1001 18.2441C66.9497 18.2441 64.4351 15.4854 64.4351 11.4082C64.4351 7.33105 66.9497 4.57227 71.1001 4.57227C75.2505 4.57227 77.7651 7.33105 77.7651 11.4082C77.7651 15.4854 75.2505 18.2441 71.1001 18.2441ZM71.1245 15.1436C72.687 15.1436 73.5659 13.6055 73.5659 11.3838C73.5659 9.16211 72.687 7.62402 71.1245 7.62402C69.5132 7.62402 68.6343 9.16211 68.6343 11.3838C68.6343 13.6055 69.5132 15.1436 71.1245 15.1436ZM87.2866 4.74316V7.77051H84.8696V13.8496C84.8696 14.6797 85.2847 14.9238 85.9927 14.9482C86.3345 14.9727 86.9937 14.9238 87.4575 14.8994V18.0488C87.0669 18.0977 86.3833 18.1953 85.4067 18.1953C82.5015 18.1953 80.7437 16.999 80.7681 14.3135V7.77051H78.9858V4.74316H80.7681V1.56934H84.8696V4.74316H87.2866Z" fill="url(#paint0_linear_89_228)"/>
<defs>
<linearGradient id="paint0_linear_89_228" x1="-82" y1="9" x2="169" y2="9" gradientUnits="userSpaceOnUse">
<stop stop-color="#C1FDFF"/>
<stop offset="0.580941" stop-color="#56C19B"/>
<stop offset="1" stop-color="#3F8D71"/>
</linearGradient>
</defs>
</svg>
