<svg width="193" height="40" viewBox="0 0 193 40" fill="none" xmlns="http://www.w3.org/2000/svg">
<path d="M0.351074 39V0.113281H9.48193V31.5342H25.8101V39H0.351074ZM29.1938 30.8896C29.1938 24.4443 34.189 22.1348 39.9897 21.7588C42.0845 21.6245 45.7368 21.4902 46.9722 21.4365V19.0732C46.9722 17.0322 45.4683 15.9043 42.9976 15.9043C40.5806 15.9043 39.0767 16.9248 38.7007 18.8584H30.2681C30.644 13.7021 35.0483 9.45898 43.2124 9.45898C50.4097 9.45898 56.0493 12.8965 56.0493 19.1807V39H47.5093V34.918H47.2944C45.6831 37.8721 42.8901 39.5371 38.8081 39.5371C33.2222 39.5371 29.1938 36.6904 29.1938 30.8896ZM37.7876 30.5137C37.7876 32.501 39.3452 33.5215 41.5474 33.5215C44.6089 33.5215 47.0796 31.5342 47.0259 28.6338V26.7539C45.9248 26.8076 42.8364 26.9419 41.4937 27.0762C39.2378 27.3447 37.7876 28.5801 37.7876 30.5137ZM67.1138 39L59.4331 9.83496H68.5103L72.5923 28.6875H72.8071L77.1577 9.83496H86.02L90.478 28.5801H90.6929L94.6138 9.83496H103.745L96.064 39H86.396L81.7769 21.7051H81.4009L76.7817 39H67.1138ZM107.451 39V0.113281H123.51C132.211 0.113281 136.723 4.08789 136.723 9.99609C136.723 14.4541 133.715 17.5156 129.472 18.375V18.751C134.145 18.9658 138.227 22.5107 138.227 28.1504C138.227 34.4346 133.339 39 124.746 39H107.451ZM122.597 31.5879C126.787 31.5879 128.667 29.9229 128.667 27.1299C128.667 24.0684 126.411 22.1348 122.758 22.1348H116.582V31.5879H122.597ZM122.006 16.1729C125.122 16.1729 127.377 14.5078 127.377 11.7148C127.377 9.08301 125.39 7.41797 122.114 7.41797H116.582V16.1729H122.006ZM156.22 39.5371C147.089 39.5371 141.557 33.4678 141.557 24.498C141.557 15.5283 147.089 9.45898 156.22 9.45898C165.351 9.45898 170.883 15.5283 170.883 24.498C170.883 33.4678 165.351 39.5371 156.22 39.5371ZM156.274 32.7158C159.711 32.7158 161.645 29.332 161.645 24.4443C161.645 19.5566 159.711 16.1729 156.274 16.1729C152.729 16.1729 150.795 19.5566 150.795 24.4443C150.795 29.332 152.729 32.7158 156.274 32.7158ZM191.831 9.83496V16.4951H186.513V29.8691C186.513 31.6953 187.426 32.2324 188.984 32.2861C189.736 32.3398 191.186 32.2324 192.207 32.1787V39.1074C191.347 39.2148 189.843 39.4297 187.695 39.4297C181.303 39.4297 177.436 36.7979 177.49 30.8896V16.4951H173.569V9.83496H177.49V2.85254H186.513V9.83496H191.831Z" fill="url(#paint0_linear_15_24)"/>
<defs>
<linearGradient id="paint0_linear_15_24" x1="-30" y1="19" x2="221" y2="19" gradientUnits="userSpaceOnUse">
<stop stop-color="#C1FDFF"/>
<stop offset="0.580941" stop-color="#56C19B"/>
<stop offset="1" stop-color="#3F8D71"/>
</linearGradient>
</defs>
</svg>
