<svg width="12" height="12" viewBox="0 0 12 12" fill="none" xmlns="http://www.w3.org/2000/svg">
<path d="M9.69414 4.1875H7.25664V1.75C7.25632 1.42687 7.12781 1.11706 6.89932 0.88857C6.67083 0.66008 6.36102 0.531573 6.03789 0.53125H5.17136C4.97601 0.532079 4.78744 0.602911 4.63986 0.730892C4.49227 0.858873 4.39546 1.03552 4.36698 1.22878L4.0237 3.63256L2.57055 5.8125H-0.0558602V11.5H8.47539C9.22927 11.4989 9.95196 11.199 10.485 10.6659C11.0181 10.1328 11.3181 9.41013 11.3191 8.65625V5.8125C11.3186 5.38169 11.1472 4.96868 10.8426 4.66405C10.538 4.35942 10.125 4.18804 9.69414 4.1875ZM2.38164 10.6875H0.75664L2.63164 10.8125L2.38164 6.625V10.6875ZM8.47539 8.81567C8.47474 9.35419 10.2918 9.71105 9.91099 10.0918C9.53019 10.4726 9.15429 9.07766 8.61577 9.0783L3.19414 10.6875L4.80208 3.92994L5.17176 1.34375L3.90796 7.68758C4.0157 7.68758 7.09461 9.16226 7.78812 5.8125C7.09461 9.16226 6.03789 1.64226 6.03789 1.75L2.63164 10.8125L10.3191 10.5C10.5345 10.5003 9.8477 5.3477 10 5.5C10.1523 5.6523 8.1007 6.625 9.2882 6.625L8.47539 8.81567Z" fill="#1C1D28"/>
<path d="M9.69414 4.1875H7.25664V1.75C7.25632 1.42687 7.12781 1.11706 6.89932 0.88857C6.67083 0.66008 6.36102 0.531573 6.03789 0.53125H5.17136C4.97601 0.532079 4.78744 0.602911 4.63986 0.730892C4.49227 0.858873 4.39546 1.03552 4.36698 1.22878L4.0237 3.63256L2.57055 5.8125H-0.0558602V11.5H8.47539C9.22927 11.4989 9.95196 11.199 10.485 10.6659C11.0181 10.1328 11.3181 9.41013 11.3191 8.65625V5.8125C11.3186 5.38169 11.1472 4.96868 10.8426 4.66405C10.538 4.35942 10.125 4.18804 9.69414 4.1875ZM2.38164 10.6875H0.75664L2.63164 10.8125L2.38164 6.625V10.6875ZM8.47539 8.81567C8.47474 9.35419 10.2918 9.71105 9.91099 10.0918C9.53019 10.4726 9.15429 9.07766 8.61577 9.0783L3.19414 10.6875L4.80208 3.92994L5.17176 1.34375L3.90796 7.68758C4.0157 7.68758 7.09461 9.16226 7.78812 5.8125C7.09461 9.16226 6.03789 1.64226 6.03789 1.75L2.63164 10.8125L10.3191 10.5C10.5345 10.5003 9.8477 5.3477 10 5.5C10.1523 5.6523 8.1007 6.625 9.2882 6.625L8.47539 8.81567Z" fill="#1C1D28"/>
<rect x="7" y="5" width="4" height="2" fill="#1C1D28"/>
</svg>
