<svg width="71" height="20" viewBox="0 0 71 20" fill="none" xmlns="http://www.w3.org/2000/svg">
<rect width="71" height="20" rx="10" fill="#1C1D28"/>
<path d="M26.6133 12.8867V13.9121H18.4785V12.8867H21.9062V11.5488H19.416V8.56055H24.4453V7.58398H19.4062V6.58789H25.6758V9.53711H20.666V10.5332H25.8809V11.5488H23.1465V12.8867H26.6133ZM34.2305 6.83203V7.89648C34.2305 9.11719 34.2305 10.3281 33.9082 12.1641L32.6484 12.0566C32.9805 10.3477 32.9805 9.07812 32.9902 7.89648V7.82812H27.9609V6.83203H34.2305ZM35.2266 12.7109V13.7363H27.1211V12.7109H35.2266ZM38.1562 6.63672C39.5137 6.63672 40.4902 7.86719 40.5 9.80078C40.4902 11.7539 39.5137 12.9746 38.1562 12.9746C36.7988 12.9746 35.8027 11.7539 35.8125 9.80078C35.8027 7.86719 36.7988 6.63672 38.1562 6.63672ZM38.1562 7.75977C37.4727 7.75977 37.0137 8.48242 37.0137 9.80078C37.0137 11.1289 37.4727 11.8418 38.1562 11.8418C38.8496 11.8418 39.2988 11.1289 39.3086 9.80078C39.2988 8.48242 38.8496 7.75977 38.1562 7.75977ZM42.7754 6.01172V9.36133H44.084V10.3965H42.7754V14.8984H41.5254V6.01172H42.7754ZM52.5117 9.9082V10.9336H49.0645V11.7734H47.8242V10.9336H44.4062V9.9082H52.5117ZM49.0742 12.291C49.0742 13.0234 49.9727 13.7559 51.9355 13.9219L51.5547 14.8594C50.0361 14.7227 48.9668 14.2246 48.4297 13.502C47.8877 14.21 46.8379 14.7227 45.3438 14.8594L44.9238 13.9219C46.8574 13.7559 47.7852 12.9844 47.7949 12.291V12.1152H49.0742V12.291ZM48.459 6.11914C50.4512 6.11914 51.6816 6.72461 51.6914 7.78906C51.6816 8.85352 50.4512 9.46875 48.459 9.46875C46.4766 9.46875 45.2168 8.85352 45.2168 7.78906C45.2168 6.72461 46.4766 6.11914 48.459 6.11914ZM48.459 7.03711C47.1992 7.03711 46.5059 7.30078 46.5156 7.78906C46.5059 8.26758 47.1992 8.52148 48.459 8.52148C49.6992 8.52148 50.4023 8.26758 50.4023 7.78906C50.4023 7.30078 49.6992 7.03711 48.459 7.03711Z" fill="#5AC39E"/>
</svg>
