<svg width="148" height="54" viewBox="0 0 148 54" fill="none" xmlns="http://www.w3.org/2000/svg">
<g filter="url(#filter0_d_96_5)">
<rect x="5" y="3" width="138" height="44" rx="15" fill="#1C1D28"/>
</g>
<path d="M43.9429 27.3521V32.3926H42.0054V28.896H34.4673V27.3521H43.9429ZM43.9429 18.6182V26.7012H42.0054V18.6182H43.9429ZM36.3896 19.375C38.5391 19.3599 40.1587 20.7827 40.1587 22.7202C40.1587 24.7031 38.5391 26.0957 36.3896 26.0957C34.2402 26.0957 32.6206 24.7031 32.6206 22.7202C32.6206 20.7827 34.2402 19.3599 36.3896 19.375ZM36.3896 21.0249C35.2847 21.0249 34.4976 21.6455 34.5127 22.7202C34.4976 23.8252 35.2847 24.4609 36.3896 24.4609C37.4644 24.4609 38.2515 23.8252 38.2515 22.7202C38.2515 21.6455 37.4644 21.0249 36.3896 21.0249ZM57.4146 18.6182V26.686H55.4922V24.9302H52.9189V25.9292H46.3799V19.6323H52.9189V20.6313H55.4922V18.6182H57.4146ZM48.3022 21.1611V24.4004H51.0269V21.1611H48.3022ZM52.707 27.0493C55.6436 27.0493 57.4448 28.0332 57.46 29.7285C57.4448 31.4238 55.6436 32.3926 52.707 32.3926C49.7705 32.3926 47.9692 31.4238 47.9692 29.7285C47.9692 28.0332 49.7705 27.0493 52.707 27.0493ZM52.707 28.5176C50.8755 28.5176 49.8916 28.9111 49.8916 29.7285C49.8916 30.5156 50.8755 30.9243 52.707 30.9243C54.5386 30.9243 55.5376 30.5156 55.5376 29.7285C55.5376 28.9111 54.5386 28.5176 52.707 28.5176ZM52.9189 23.3711H55.4922V22.1602H52.9189V23.3711ZM74.3071 18.6333V28.6841H72.3696V18.6333H74.3071ZM74.6704 30.6064V32.1504H65.0737V27.7153H67.0264V30.6064H74.6704ZM68.0557 20.7222C68.0405 22.5386 69.0093 24.3247 71.2798 25.0513L70.2959 26.5649C68.7444 26.0503 67.6697 25.021 67.0566 23.7041C66.4436 25.1194 65.3386 26.2546 63.7266 26.8071L62.7275 25.2783C65.0435 24.5063 66.0425 22.584 66.0425 20.7222V19.3901H68.0557V20.7222ZM87.5215 19.814V21.1157C87.5215 22.8413 87.5215 24.7788 86.9614 27.7002L85.0239 27.5034C85.5461 24.8999 85.5688 22.9624 85.584 21.3428H77.4707V19.814H87.5215ZM88.7324 29.1382V30.7124H76.1689V29.1382H80.6646V24.4004H82.5869V29.1382H88.7324ZM100.433 18.6182V24.0068H102.461V25.5962H100.433V32.3926H98.5259V18.6182H100.433ZM97.5874 20.6768V22.2207H89.4893V20.6768H92.6074V18.8301H94.5449V20.6768H97.5874ZM93.5762 22.9927C95.5894 22.9927 97.0879 24.355 97.0879 26.2773C97.0879 28.1997 95.5894 29.562 93.5762 29.562C91.5479 29.562 90.0493 28.1997 90.0493 26.2773C90.0493 24.355 91.5479 22.9927 93.5762 22.9927ZM93.5762 24.5518C92.6074 24.5669 91.896 25.2178 91.896 26.2773C91.896 27.3521 92.6074 27.9878 93.5762 27.9727C94.5449 27.9878 95.2412 27.3521 95.2412 26.2773C95.2412 25.2178 94.5449 24.5669 93.5762 24.5518ZM114.541 18.6182V32.3926H112.588V18.6182H114.541ZM110.408 20.0562C110.408 24.2339 108.94 27.7002 104.021 30.0312L103.006 28.4873C106.563 26.8071 108.13 24.6274 108.44 21.5698H103.748V20.0562H110.408Z" fill="#6CF3C3"/>
<defs>
<filter id="filter0_d_96_5" x="0" y="0" width="148" height="54" filterUnits="userSpaceOnUse" color-interpolation-filters="sRGB">
<feFlood flood-opacity="0" result="BackgroundImageFix"/>
<feColorMatrix in="SourceAlpha" type="matrix" values="0 0 0 0 0 0 0 0 0 0 0 0 0 0 0 0 0 0 127 0" result="hardAlpha"/>
<feOffset dy="2"/>
<feGaussianBlur stdDeviation="2.5"/>
<feComposite in2="hardAlpha" operator="out"/>
<feColorMatrix type="matrix" values="0 0 0 0 0 0 0 0 0 0 0 0 0 0 0 0 0 0 0.25 0"/>
<feBlend mode="normal" in2="BackgroundImageFix" result="effect1_dropShadow_96_5"/>
<feBlend mode="normal" in="SourceGraphic" in2="effect1_dropShadow_96_5" result="shape"/>
</filter>
</defs>
</svg>
