<svg width="112" height="54" viewBox="0 0 112 54" fill="none" xmlns="http://www.w3.org/2000/svg">
<g filter="url(#filter0_d_105_7)">
<rect x="5" y="3" width="102" height="44" rx="15" fill="#1C1D28"/>
</g>
<path d="M31.6904 18.7393C34.854 18.7393 36.6855 19.5718 36.7007 21.1006C36.6855 22.4629 35.2097 23.2727 32.6138 23.4165V24.2188H37.9722V25.7476H25.4087V24.2188H30.7065V23.4165C28.1333 23.2576 26.665 22.4478 26.665 21.1006C26.665 19.5718 28.5117 18.7393 31.6904 18.7393ZM31.6904 20.1621C29.6621 20.1621 28.6782 20.4648 28.6934 21.1006C28.6782 21.7666 29.6621 22.0391 31.6904 22.0391C33.7339 22.0391 34.7026 21.7666 34.7026 21.1006C34.7026 20.4648 33.7339 20.1621 31.6904 20.1621ZM36.4434 26.5044V30.0161H28.769V30.8486H36.8066V32.3018H26.877V28.6689H34.5361V27.9424H26.8618V26.5044H36.4434ZM50.354 18.6182V32.4229H48.4316V18.6182H50.354ZM46.0854 19.7686V25.0815H41.5444V27.6094C43.6409 27.6018 45.427 27.4807 47.4478 27.1553L47.6143 28.7144C45.3438 29.1079 43.3003 29.1987 40.7876 29.1987H39.5464V23.5527H44.1177V21.3276H39.5312V19.7686H46.0854ZM63.7803 18.6182V32.3926H61.8276V18.6182H63.7803ZM59.6479 20.0562C59.6479 24.2339 58.1797 27.7002 53.2603 30.0312L52.2461 28.4873C55.8032 26.8071 57.3699 24.6274 57.6802 21.5698H52.9878V20.0562H59.6479Z" fill="#6CF3C3"/>
<path d="M74 24.4615L80.5 18L87 24.4615M80.5 18.8974V32" stroke="#6CF3C3" stroke-width="2" stroke-linecap="round" stroke-linejoin="round"/>
<defs>
<filter id="filter0_d_105_7" x="0" y="0" width="112" height="54" filterUnits="userSpaceOnUse" color-interpolation-filters="sRGB">
<feFlood flood-opacity="0" result="BackgroundImageFix"/>
<feColorMatrix in="SourceAlpha" type="matrix" values="0 0 0 0 0 0 0 0 0 0 0 0 0 0 0 0 0 0 127 0" result="hardAlpha"/>
<feOffset dy="2"/>
<feGaussianBlur stdDeviation="2.5"/>
<feComposite in2="hardAlpha" operator="out"/>
<feColorMatrix type="matrix" values="0 0 0 0 0 0 0 0 0 0 0 0 0 0 0 0 0 0 0.25 0"/>
<feBlend mode="normal" in2="BackgroundImageFix" result="effect1_dropShadow_105_7"/>
<feBlend mode="normal" in="SourceGraphic" in2="effect1_dropShadow_105_7" result="shape"/>
</filter>
</defs>
</svg>
