<svg width="38" height="38" viewBox="0 0 38 38" fill="none" xmlns="http://www.w3.org/2000/svg">
<path d="M15.8333 22.1667L33.25 4.75M15.8333 22.1667L21.375 33.25C21.4445 33.4016 21.556 33.53 21.6963 33.6201C21.8367 33.7102 21.9999 33.758 22.1667 33.758C22.3334 33.758 22.4966 33.7102 22.637 33.6201C22.7773 33.53 22.8889 33.4016 22.9583 33.25L33.25 4.75M15.8333 22.1667L4.74999 16.625C4.5984 16.5555 4.46994 16.444 4.37988 16.3037C4.28982 16.1633 4.24194 16.0001 4.24194 15.8333C4.24194 15.6666 4.28982 15.5033 4.37988 15.363C4.46994 15.2227 4.5984 15.1111 4.74999 15.0417L33.25 4.75" stroke="#E6EAFC" stroke-width="2.3" stroke-linecap="round" stroke-linejoin="round"/>
</svg>
