<svg width="13" height="13" viewBox="0 0 13 13" fill="none" xmlns="http://www.w3.org/2000/svg">
<path d="M10.5625 4.875H8.125V2.4375C8.12468 2.11437 7.99617 1.80456 7.76768 1.57607C7.53919 1.34758 7.22938 1.21907 6.90625 1.21875H6.03972C5.84437 1.21958 5.6558 1.29041 5.50822 1.41839C5.36063 1.54637 5.26382 1.72302 5.23534 1.91628L4.89206 4.32006L3.43891 6.5H0.8125V12.1875H9.34375C10.0976 12.1864 10.8203 11.8865 11.3534 11.3534C11.8865 10.8203 12.1864 10.0976 12.1875 9.34375V6.5C12.187 6.06919 12.0156 5.65618 11.711 5.35155C11.4063 5.04692 10.9933 4.87554 10.5625 4.875ZM3.25 11.375H1.625V7.3125H3.25V11.375ZM11.375 9.34375C11.3744 9.88227 11.1601 10.3986 10.7793 10.7793C10.3986 11.1601 9.88227 11.3744 9.34375 11.375H4.0625V7.02934L5.67044 4.61744L6.04012 2.03125H6.90625C7.01399 2.03125 7.11733 2.07405 7.19351 2.15024C7.2697 2.22642 7.3125 2.32976 7.3125 2.4375V5.6875H10.5625C10.7779 5.68782 10.9844 5.77353 11.1367 5.92583C11.289 6.07814 11.3747 6.28461 11.375 6.5V9.34375Z" fill="#1C1D28"/>
</svg>
